<?xml version="1.0" encoding="utf-8"?>
<!-- Generator: Adobe Illustrator 16.0.0, SVG Export Plug-In . SVG Version: 6.00 Build 0)  -->
<!DOCTYPE svg PUBLIC "-//W3C//DTD SVG 1.1//EN" "http://www.w3.org/Graphics/SVG/1.1/DTD/svg11.dtd">
<svg version="1.1" id="Layer_1" xmlns="http://www.w3.org/2000/svg" xmlns:xlink="http://www.w3.org/1999/xlink" x="0px" y="0px"
	 width="64px" height="64px" viewBox="0 0 64 64" style="enable-background:new 0 0 64 64;" xml:space="preserve">
<style type="text/css">
<![CDATA[
	.st0{fill:#FFFFFF;}
]]>
</style>
<g>
	<path class="st0" d="M56.262,17.837H26.748c-0.961,0-1.508,0.743-1.223,1.661l4.669,13.677c0.23,0.738,1.044,1.336,1.817,1.336
		h19.35c0.772,0,1.586-0.598,1.814-1.336l4.069-14C57.477,18.437,57.036,17.837,56.262,17.837z"/>
	<circle class="st0" cx="29.417" cy="50.267" r="4.415"/>
	<circle class="st0" cx="48.1" cy="50.323" r="4.415"/>
	<path class="st0" d="M53.4,39.004H27.579L17.242,9.261H9.193c-1.381,0-2.5,1.119-2.5,2.5c0,1.381,1.119,2.5,2.5,2.5h4.493
		l10.337,29.743H53.4c1.381,0,2.5-1.119,2.5-2.5S54.781,39.004,53.4,39.004z"/>
</g>
</svg>
