<?xml version="1.0" encoding="utf-8"?>
<!-- Generator: Adobe Illustrator 21.0.2, SVG Export Plug-In . SVG Version: 6.00 Build 0)  -->
<svg version="1.1" id="Layer_1" xmlns="http://www.w3.org/2000/svg" xmlns:xlink="http://www.w3.org/1999/xlink" x="0px" y="0px"
	 viewBox="0 0 526.4 144" style="enable-background:new 0 0 526.4 144;" xml:space="preserve">
<style type="text/css">
	.st0{fill:#FFFFFF;}
</style>
<g>
	<g>
		<path class="st0" d="M79.9,10.8c0,6-4.8,10.8-10.8,10.8s-10.8-4.8-10.8-10.8S63.1,0,69.1,0S79.9,4.9,79.9,10.8z M69.1,30.2
			c-6.2,0-11.2,5-11.2,11.2s5,11.2,11.2,11.2s11.2-5,11.2-11.2C80.4,35.2,75.3,30.2,69.1,30.2z M69.1,60.4
			c-6.4,0-11.7,5.2-11.7,11.7c0,6.4,5.2,11.7,11.7,11.7s11.7-5.2,11.7-11.7S75.6,60.4,69.1,60.4z M69.1,91.4
			c-6.2,0-11.2,5-11.2,11.2s5,11.2,11.2,11.2s11.2-5,11.2-11.2C80.4,96.4,75.3,91.4,69.1,91.4z M69.1,122.4c-6,0-10.8,4.8-10.8,10.8
			c0,6,4.8,10.8,10.8,10.8s10.8-4.8,10.8-10.8C79.9,127.2,75.1,122.4,69.1,122.4z M98.9,28.7c-7,0-12.7,5.7-12.7,12.7
			s5.7,12.7,12.7,12.7s12.7-5.7,12.7-12.7S105.9,28.7,98.9,28.7z M98.9,58.9c-7.2,0-13.1,5.9-13.1,13.1c0,7.2,5.9,13.1,13.1,13.1
			c7.2,0,13.1-5.9,13.1-13.1C112,64.8,106.1,58.9,98.9,58.9z M98.9,89.9c-7,0-12.7,5.7-12.7,12.7s5.7,12.7,12.7,12.7
			s12.7-5.7,12.7-12.7S105.9,89.9,98.9,89.9z M129.4,57.5c-8,0-14.6,6.5-14.6,14.6c0,8,6.5,14.6,14.6,14.6c8,0,14.6-6.5,14.6-14.6
			S137.5,57.5,129.4,57.5z M39,31.6c-5.4,0-9.8,4.4-9.8,9.8s4.4,9.8,9.8,9.8s9.8-4.4,9.8-9.8S44.4,31.6,39,31.6z M39,61.8
			c-5.7,0-10.2,4.6-10.2,10.2c0,5.7,4.6,10.2,10.2,10.2S49.2,77.6,49.2,72C49.2,66.4,44.6,61.8,39,61.8z M39,92.8
			c-5.4,0-9.8,4.4-9.8,9.8s4.4,9.8,9.8,9.8s9.8-4.4,9.8-9.8S44.4,92.8,39,92.8z M8.8,63.2C3.9,63.2,0,67.1,0,72s3.9,8.8,8.8,8.8
			s8.8-3.9,8.8-8.8S13.7,63.2,8.8,63.2z"/>
	</g>
</g>
<g>
	<path class="st0" d="M254.6,53.1c-1,0-1.9,0.9-1.9,1.9v76.3c0,1,0.9,1.9,1.9,1.9h9.2c1,0,1.9-0.9,1.9-1.9V55c0-1-0.9-1.9-1.9-1.9
		H254.6z"/>
	<g>
		<g>
			<path class="st0" d="M259.2,21c-4.8,0-8.8,3.9-8.8,8.8c0,4.8,3.9,8.8,8.8,8.8c4.8,0,8.8-3.9,8.8-8.8C268,24.9,264,21,259.2,21z"
				/>
		</g>
	</g>
	<path class="st0" d="M450.7,53.1c-1,0-1.9,0.9-1.9,1.9v76.3c0,1,0.9,1.9,1.9,1.9h9.2c1,0,1.9-0.9,1.9-1.9V55c0-1-0.9-1.9-1.9-1.9
		H450.7z"/>
	<g>
		<g>
			<path class="st0" d="M455.2,21c-4.8,0-8.9,3.9-8.9,8.8c0,4.8,4,8.8,8.9,8.8c4.8,0,8.7-3.9,8.7-8.8C464,24.9,460.1,21,455.2,21z"
				/>
		</g>
	</g>
	<path class="st0" d="M330.4,66.1c1,0,1.9-0.9,1.9-1.9V55c0-1-0.9-1.9-1.9-1.9h-19.6V23.7c0-1-0.9-1.9-1.9-1.9h-9.2
		c-1,0-1.9,0.9-1.9,1.9v29.4h-9.9c-1,0-1.9,0.9-1.9,1.9v9.2c0,1,0.9,1.9,1.9,1.9h9.9v44.5c0,13.5,9.1,22.6,22.6,22.6h9.9
		c1,0,1.9-0.9,1.9-1.9v-9.2c0-1-0.9-1.9-1.9-1.9h-8.8c-6.4,0-10.8-4.6-10.8-11.1V66h19.7V66.1z"/>
	<path class="st0" d="M524.5,66.1c1,0,1.9-0.9,1.9-1.9V55c0-1-0.9-1.9-1.9-1.9h-19.6V23.7c0-1-0.9-1.9-1.9-1.9h-9.2
		c-1,0-1.9,0.9-1.9,1.9v29.4H482c-1,0-1.9,0.9-1.9,1.9v9.2c0,1,0.9,1.9,1.9,1.9h9.9v44.5c0,13.5,9.1,22.6,22.6,22.6h9.9
		c1,0,1.9-0.9,1.9-1.9v-9.2c0-1-0.9-1.9-1.9-1.9h-8.8c-6.4,0-10.8-4.6-10.8-11.1V66h19.7V66.1z"/>
	<path class="st0" d="M196.6,66.1v65.3c0,1,0.9,1.9,1.9,1.9h9.2c1,0,1.9-0.9,1.9-1.9V66.1h21.6c1,0,1.9-0.9,1.9-1.9V55
		c0-1-0.9-1.9-1.9-1.9h-21.6V35.4c0-6.6,4.6-11.6,10.8-11.6h10.8c1,0,1.9-0.9,1.9-1.9v-9.2c0-1-0.9-1.9-1.9-1.9h-10
		c-13.6,0-24.6,11-24.6,24.6v17.7h-9.9c-1,0-1.9,0.9-1.9,1.9v9.2c0,1,0.9,1.9,1.9,1.9H196.6z"/>
	<path class="st0" d="M419.7,62.4c-7.2-7.8-17.3-12-28.5-12c-10,0-20.5,4.5-26.6,10.9V12.7c0-1-0.9-1.9-1.9-1.9h-9.2
		c-1,0-1.9,0.9-1.9,1.9v80.5c0,29.7,19.9,43.1,39.6,43.1s39.6-13.3,39.6-43.1C430.8,80.9,426.9,70.2,419.7,62.4z M391.2,123.2
		c-19.6,0-26.6-15.5-26.6-30.1c0-17.9,10.7-29.9,26.6-29.9s26.6,12,26.6,29.9C417.8,107.7,410.8,123.2,391.2,123.2z"/>
</g>
</svg>
