<?xml version="1.0" encoding="utf-8"?>
<!-- Generator: Adobe Illustrator 21.0.2, SVG Export Plug-In . SVG Version: 6.00 Build 0)  -->
<svg version="1.1" id="레이어_1" xmlns="http://www.w3.org/2000/svg" xmlns:xlink="http://www.w3.org/1999/xlink" x="0px"
	 y="0px" viewBox="0 0 24 24" style="enable-background:new 0 0 24 24;" xml:space="preserve">
<style type="text/css">
	.st0{fill:#FFFFFF;}
</style>
<path class="st0" d="M12,2c3.3,0,6,2.7,6,6v8c0,3.3-2.7,6-6,6s-6-2.7-6-6V8C6,4.7,8.7,2,12,2z M12,0C7.6,0,4,3.6,4,8v8
	c0,4.4,3.6,8,8,8s8-3.6,8-8V8C20,3.6,16.4,0,12,0z M12,9c-0.8,0-1.5-0.7-1.5-1.5S11.2,6,12,6s1.5,0.7,1.5,1.5S12.8,9,12,9z"/>
</svg>
