<?xml version="1.0" encoding="utf-8"?>
<!-- Generator: Adobe Illustrator 16.0.0, SVG Export Plug-In . SVG Version: 6.00 Build 0)  -->
<!DOCTYPE svg PUBLIC "-//W3C//DTD SVG 1.1//EN" "http://www.w3.org/Graphics/SVG/1.1/DTD/svg11.dtd">
<svg version="1.1" id="iconmonstr" xmlns="http://www.w3.org/2000/svg" xmlns:xlink="http://www.w3.org/1999/xlink" x="0px" y="0px"
	 width="24px" height="24px" viewBox="0 0 24 24" style="enable-background:new 0 0 24 24;" xml:space="preserve">
<path id="magnifier-4" d="M23.111,20.058l-4.977-4.977c0.965-1.521,1.523-3.322,1.523-5.251c0-5.42-4.409-9.83-9.829-9.83
	C4.408,0,0,4.41,0,9.83c0,5.419,4.408,9.83,9.829,9.83c1.834,0,3.552-0.506,5.022-1.383l5.021,5.021
	C22.016,25.439,25.256,22.202,23.111,20.058z M3.047,9.83c0-3.739,3.043-6.782,6.782-6.782s6.782,3.042,6.782,6.782
	c0,3.74-3.043,6.782-6.782,6.782S3.047,13.569,3.047,9.83z M5.057,8.066C7.041,3.467,13.721,4,14.979,8.815
	C12.445,5.841,7.986,5.521,5.057,8.066z"/>
</svg>
